<svg width="1920" height="558" viewBox="0 0 1920 558" fill="none" xmlns="http://www.w3.org/2000/svg">
<path d="M1920 22C1817 -7.50001 1783.73 214.391 1702 271.999C1619 330.499 1469 238.499 1332.5 256.499C1144.7 281.264 1084 567.499 786.5 531.999C604.421 510.272 591.5 397.412 338 314.5C205 271 48.5 301 0.000976562 353" stroke="#FDC501"/>
<g filter="url(#filter0_d)">
<path d="M183.607 319.383L187.861 318.555C191.692 317.804 195.287 316.109 198.198 313.53C203.507 308.801 205.094 302.7 204.312 294.122L203.428 287.37C201.979 278.902 198.873 273.393 192.528 270.212C189.051 268.469 185.142 267.757 181.246 268.017L176.923 268.311C174.13 268.495 171.344 268.905 168.613 269.557L167.996 269.706L98.2479 278.835C94.2065 279.546 92.1811 280.559 89.0002 282.289C83.7735 285.399 81.9448 290.692 83.6307 304.093L84.2519 308.839C86.0717 322.222 89.2235 326.864 95.052 328.526C98.5712 329.38 100.786 329.816 104.877 329.484L174.603 320.358L175.237 320.343C178.039 320.225 180.836 319.905 183.607 319.383ZM170.824 315.957L155.249 314.981C154.196 314.915 153.145 314.871 152.097 314.85C153.193 301.357 152.448 293.408 147.606 280.534C148.613 280.244 149.617 279.931 150.618 279.596L165.417 274.645C168.615 273.569 172.129 274.899 173.762 277.836C175.929 281.722 177.265 286.375 178.275 292.702L178.596 295.153C179.249 301.527 179.136 306.392 178.039 310.684C177.244 313.983 174.192 316.173 170.824 315.957Z" fill="#F2F2F2"/>
<path d="M198.963 278.934L174.788 279.945L174.823 280.213L198.974 280.066C198.907 279.554 198.835 279.178 198.963 278.934Z" fill="#E7E7E7"/>
<path d="M202.168 303.423L178.548 308.668L178.513 308.401L201.891 302.349C201.956 302.839 201.983 303.221 202.168 303.423Z" fill="#E7E7E7"/>
<path d="M108.142 322.665C105.462 323.016 103.257 323.01 101.428 322.569C101.601 322.502 101.768 322.389 101.932 322.254C101.274 322.091 100.659 321.9 100.065 321.705C98.1844 321.045 96.682 319.632 95.8117 317.842C94.4663 315.027 93.7473 312.31 92.9806 308.535C92.7882 307.586 92.6434 306.653 92.518 305.695L92.4363 305.071C92.3138 304.135 92.2136 303.196 92.1611 302.274C91.9274 298.406 91.9231 295.596 92.4956 292.507C92.8536 290.556 93.9671 288.824 95.6119 287.679C96.1323 287.317 96.6809 286.996 97.2936 286.643C97.1479 286.572 97.0052 286.522 96.8401 286.476C98.4694 285.56 100.55 284.971 103.163 284.629C104.302 284.479 105.472 284.394 106.648 284.354L111.577 322.012C110.414 322.323 109.281 322.516 108.142 322.665Z" fill="#4B545A"/>
<path d="M108.142 322.665C105.462 323.016 103.257 323.01 101.428 322.569C101.601 322.502 101.768 322.389 101.932 322.254C101.274 322.091 100.659 321.9 100.065 321.705C98.1844 321.045 96.682 319.632 95.8117 317.842C94.4663 315.027 93.7473 312.31 92.9806 308.535C92.7882 307.586 92.6434 306.653 92.518 305.695L92.4363 305.071C92.3138 304.135 92.2136 303.196 92.1611 302.274C91.9274 298.406 91.9231 295.596 92.4956 292.507C92.8536 290.556 93.9671 288.824 95.6119 287.679C96.1323 287.317 96.6809 286.996 97.2936 286.643C97.1479 286.572 97.0052 286.522 96.8401 286.476C98.4694 285.56 100.55 284.971 103.163 284.629C104.302 284.479 105.472 284.394 106.648 284.354L111.577 322.012C110.414 322.323 109.281 322.516 108.142 322.665Z" fill="#4388FC" fill-opacity="0.1"/>
<path d="M108.142 322.665C105.462 323.016 103.257 323.01 101.428 322.569C101.601 322.502 101.768 322.389 101.932 322.254C101.274 322.091 100.659 321.9 100.065 321.705C98.1844 321.045 96.682 319.632 95.8117 317.842C94.4663 315.027 93.7473 312.31 92.9806 308.535C92.7882 307.586 92.6434 306.653 92.518 305.695L92.4363 305.071C92.3138 304.135 92.2136 303.196 92.1611 302.274C91.9274 298.406 91.9231 295.596 92.4956 292.507C92.8536 290.556 93.9671 288.824 95.6119 287.679C96.1323 287.317 96.6809 286.996 97.2936 286.643C97.1479 286.572 97.0052 286.522 96.8401 286.476C98.4694 285.56 100.55 284.971 103.163 284.629C104.302 284.479 105.472 284.394 106.648 284.354L111.577 322.012C110.414 322.323 109.281 322.516 108.142 322.665Z" fill="url(#paint0_radial)" fill-opacity="0.77"/>
<path d="M112.564 284.259C110.504 284.484 108.376 284.717 106.025 284.979C105.847 285.003 105.662 284.982 105.494 284.913C104.73 284.628 104.414 284.125 104.46 283.258C104.679 281.983 105.736 281.21 107.741 280.902L163.708 272.353C163.752 272.347 163.797 272.341 163.842 272.335C163.822 272.36 163.781 272.388 163.739 272.416L162.573 273.226C162.322 273.395 162.047 273.545 161.743 273.652L152.334 276.742C145.669 278.929 139.707 280.412 134.046 281.244C125.419 282.849 119.464 283.515 112.564 284.259Z" fill="#4B545A"/>
<path d="M112.564 284.259C110.504 284.484 108.376 284.717 106.025 284.979C105.847 285.003 105.662 284.982 105.494 284.913C104.73 284.628 104.414 284.125 104.46 283.258C104.679 281.982 105.736 281.209 107.741 280.902L163.708 272.353C163.752 272.347 163.797 272.341 163.842 272.335C163.822 272.36 163.781 272.388 163.739 272.416L162.573 273.226C162.322 273.395 162.047 273.545 161.743 273.652L152.334 276.742C145.669 278.929 139.707 280.412 134.046 281.244C125.419 282.849 119.464 283.515 112.564 284.259Z" fill="#4388FC" fill-opacity="0.1"/>
<path d="M112.564 284.259C110.504 284.484 108.376 284.717 106.025 284.979C105.847 285.003 105.662 284.982 105.494 284.913C104.73 284.628 104.414 284.125 104.46 283.258C104.679 281.982 105.736 281.209 107.741 280.902L163.708 272.353C163.752 272.347 163.797 272.341 163.842 272.335C163.822 272.36 163.781 272.388 163.739 272.416L162.573 273.226C162.322 273.395 162.047 273.545 161.743 273.652L152.334 276.742C145.669 278.929 139.707 280.412 134.046 281.244C125.419 282.849 119.464 283.515 112.564 284.259Z" fill="url(#paint1_radial)" fill-opacity="0.77"/>
<path d="M129.857 277.531C129.242 279.085 129.092 280.192 129.117 282.116L132.516 281.535C133.21 279.721 133.94 278.357 135.244 276.69L129.857 277.531Z" fill="#4B545A"/>
<path d="M157.082 275.191L157.317 273.347L163.71 272.375C163.754 272.369 163.799 272.363 163.844 272.357C163.824 272.382 163.783 272.411 163.741 272.439L162.575 273.249C162.324 273.417 162.048 273.567 161.745 273.675L157.082 275.191Z" fill="#4B545A"/>
<path d="M117.313 320.536C115.264 320.849 113.148 321.172 110.809 321.523C110.63 321.547 110.458 321.615 110.313 321.724C109.648 322.196 109.472 322.763 109.739 323.59C110.279 324.766 111.5 325.24 113.516 325.022L169.798 318.879C169.843 318.873 169.887 318.867 169.932 318.862C169.907 318.842 169.859 318.826 169.812 318.809L168.476 318.327C168.191 318.228 167.886 318.155 167.564 318.129L157.63 317.548C150.626 317.15 144.483 317.252 138.799 317.905C130.095 318.568 124.171 319.48 117.313 320.536Z" fill="#4B545A"/>
<path d="M117.313 320.536C115.264 320.849 113.148 321.172 110.809 321.523C110.63 321.547 110.458 321.614 110.313 321.724C109.648 322.196 109.472 322.763 109.739 323.59C110.279 324.766 111.5 325.24 113.516 325.022L169.798 318.879C169.843 318.873 169.887 318.867 169.932 318.862C169.907 318.842 169.859 318.826 169.812 318.809L168.476 318.327C168.191 318.228 167.886 318.155 167.564 318.129L157.63 317.548C150.626 317.15 144.483 317.252 138.799 317.905C130.095 318.568 124.171 319.48 117.313 320.536Z" fill="#4388FC" fill-opacity="0.1"/>
<path d="M117.313 320.536C115.264 320.849 113.148 321.172 110.809 321.523C110.63 321.547 110.458 321.614 110.313 321.724C109.648 322.196 109.472 322.763 109.739 323.59C110.279 324.766 111.5 325.24 113.516 325.022L169.798 318.879C169.843 318.873 169.887 318.867 169.932 318.862C169.907 318.842 169.859 318.826 169.812 318.809L168.476 318.327C168.191 318.228 167.886 318.155 167.564 318.129L157.63 317.548C150.626 317.15 144.483 317.252 138.799 317.905C130.095 318.568 124.171 319.48 117.313 320.536Z" fill="url(#paint2_radial)" fill-opacity="0.77"/>
<path d="M135.731 322.59C134.738 321.247 134.307 320.215 133.836 318.35L137.271 318.037C138.408 319.611 139.465 320.741 141.154 322.016L135.731 322.59Z" fill="#4B545A"/>
<path d="M162.643 317.844L163.346 319.565L169.773 318.86C169.818 318.854 169.862 318.848 169.907 318.842C169.882 318.823 169.834 318.806 169.787 318.79L168.451 318.307C168.166 318.209 167.861 318.135 167.54 318.109L162.643 317.844Z" fill="#4B545A"/>
<path d="M160.724 273.514C160.206 273.717 159.89 273.736 159.362 273.692L159.12 271.842L160.482 271.664L160.724 273.514Z" fill="#594F4F"/>
<path d="M160.143 272.026L158.264 272.249C158.063 272.275 157.867 272.165 157.774 271.973L155.536 267.371C155.471 267.22 155.537 267.031 155.687 266.966C155.924 266.867 156.184 266.765 156.516 266.698C156.736 266.647 156.962 266.64 157.141 266.617C157.616 266.6 158.086 266.72 158.481 266.962C158.829 267.189 159.185 267.482 159.498 267.963C159.895 268.568 160.188 269.414 160.324 270.28C160.398 270.678 160.443 271.193 160.473 271.597C160.503 271.82 160.344 271.999 160.143 272.026Z" fill="#594F4F"/>
<path d="M166.612 318.503C166.058 318.439 165.748 318.502 165.249 318.681L165.491 320.53L166.854 320.352L166.612 318.503Z" fill="#594F4F"/>
<path d="M166.413 320.093L164.54 320.36C164.339 320.387 164.178 320.544 164.137 320.753L163.159 325.777C163.135 325.938 163.247 326.105 163.409 326.129C163.664 326.164 163.941 326.196 164.279 326.174C164.505 326.167 164.725 326.116 164.904 326.092C165.367 325.986 165.79 325.75 166.11 325.413C166.388 325.105 166.656 324.73 166.835 324.185C167.063 323.498 167.128 322.605 167.037 321.733C167.006 321.329 166.917 320.82 166.842 320.422C166.813 320.199 166.636 320.063 166.413 320.093Z" fill="#594F4F"/>
<path d="M197.939 277.368C194.443 273.044 190.723 270.834 185.185 270.176L187.865 269.825C189.451 269.618 191.04 269.954 192.38 270.821C194.965 272.522 196.74 274.284 197.939 277.368Z" fill="url(#paint3_linear)"/>
<path d="M197.939 277.368C194.443 273.044 190.723 270.834 185.185 270.176L187.865 269.825C189.451 269.618 191.04 269.954 192.38 270.821C194.965 272.522 196.74 274.284 197.939 277.368Z" fill="url(#paint4_linear)"/>
<path d="M185.212 270.196L187.869 269.848C189.455 269.641 191.044 269.977 192.384 270.844C194.966 272.523 196.741 274.285 197.94 277.369C194.444 273.045 190.747 270.831 185.212 270.196Z" fill="#D5E3F0"/>
<path d="M201.557 304.999C199.291 310.078 196.266 313.171 191.083 315.232L193.764 314.881C195.349 314.673 196.798 313.94 197.87 312.757C199.933 310.47 201.192 308.288 201.557 304.999Z" fill="url(#paint5_linear)"/>
<path d="M201.557 304.999C199.291 310.078 196.266 313.171 191.083 315.232L193.764 314.881C195.349 314.673 196.798 313.94 197.87 312.757C199.933 310.47 201.192 308.288 201.557 304.999Z" fill="url(#paint6_linear)"/>
<path d="M191.105 315.229L193.763 314.881C195.348 314.673 196.797 313.94 197.869 312.757C199.954 310.467 201.214 308.285 201.578 304.996C199.29 310.078 196.287 313.168 191.105 315.229Z" fill="#D5E3F0"/>
<path d="M83.2093 291.864C83.8329 286.909 85.7707 284.185 88.9729 282.27C89.906 281.763 90.7556 281.312 91.5664 280.911L91.4907 281.374C91.2171 282.928 90.2803 284.275 88.9326 285.086C86.7411 286.393 85.8732 287.572 84.7065 290.807C84.4726 291.449 83.8686 291.868 83.2093 291.864Z" fill="#D8394C"/>
<path d="M86.9874 320.72C88.8651 325.347 91.4387 327.481 95.0259 328.507C96.0582 328.757 96.9953 328.974 97.8819 329.153L97.6896 328.725C97.0251 327.293 95.7733 326.233 94.2623 325.797C91.8083 325.098 90.6662 324.182 88.7062 321.356C88.3148 320.796 87.6234 320.546 86.9874 320.72Z" fill="#D8394C"/>
<path d="M173.149 295.889C173.822 302.419 173.647 307.156 172.61 311.213C172.159 312.972 170.988 314.44 169.395 315.283L155.284 314.387C154.438 314.339 153.568 314.295 152.725 314.269C153.28 307.057 153.234 301.85 152.596 296.97C151.948 292.023 150.636 287.028 148.358 280.912C149.167 280.67 149.999 280.425 150.802 280.139L164.209 275.664C165.966 276.069 167.475 277.186 168.364 278.769C170.412 282.445 171.775 286.958 172.828 293.438L173.149 295.889ZM173.729 295.813L173.409 293.362C172.399 287.035 171.038 282.363 168.896 278.496C167.886 276.679 166.136 275.457 164.2 275.076L150.62 279.618C149.619 279.953 148.615 280.266 147.608 280.557C149.975 286.842 151.347 291.943 152.021 297.091C152.73 302.505 152.648 307.956 152.102 314.894C153.15 314.916 154.201 314.96 155.254 315.026L169.524 315.923C171.293 315.034 172.673 313.426 173.181 311.41C174.269 307.052 174.382 302.187 173.729 295.813Z" fill="black"/>
<path d="M169.518 315.879L155.248 314.981C154.195 314.915 153.144 314.871 152.096 314.85C153.192 301.357 152.447 293.409 147.605 280.534C148.612 280.244 149.616 279.931 150.617 279.596L164.175 275.057C166.113 275.46 167.86 276.659 168.87 278.476C171.037 282.363 172.373 287.016 173.383 293.343L173.704 295.794C174.357 302.168 174.244 307.033 173.147 311.324C172.667 313.381 171.287 314.99 169.518 315.879Z" fill="#4B545A"/>
<path d="M169.518 315.879L155.248 314.981C154.195 314.915 153.144 314.871 152.096 314.85C153.192 301.357 152.447 293.409 147.605 280.534C148.612 280.244 149.616 279.931 150.617 279.596L164.175 275.056C166.113 275.46 167.86 276.659 168.87 278.476C171.037 282.363 172.373 287.016 173.383 293.343L173.704 295.794C174.357 302.168 174.244 307.033 173.147 311.324C172.667 313.381 171.287 314.99 169.518 315.879Z" fill="#4388FC" fill-opacity="0.1"/>
<path d="M169.518 315.879L155.248 314.981C154.195 314.915 153.144 314.871 152.096 314.85C153.192 301.357 152.447 293.409 147.605 280.534C148.612 280.244 149.616 279.931 150.617 279.596L164.175 275.056C166.113 275.46 167.86 276.659 168.87 278.476C171.037 282.363 172.373 287.016 173.383 293.343L173.704 295.794C174.357 302.168 174.244 307.033 173.147 311.324C172.667 313.381 171.287 314.99 169.518 315.879Z" fill="url(#paint7_radial)" fill-opacity="0.77"/>
<path d="M170.824 315.957C174.192 316.174 177.245 313.984 178.068 310.726C179.161 306.412 179.255 301.572 178.625 295.195L178.304 292.744C177.294 286.417 175.933 281.745 173.791 277.878C172.157 274.941 168.644 273.611 165.445 274.687L164.204 275.098C166.143 275.502 167.89 276.701 168.9 278.518C171.067 282.405 172.403 287.057 173.413 293.384L173.734 295.836C174.386 302.21 174.273 307.075 173.177 311.366C172.668 313.381 171.291 315.012 169.519 315.879L170.824 315.957Z" fill="#4B545A"/>
<path d="M202.522 303.173C202.5 303.176 202.443 303.093 202.411 302.848L199.349 279.451C199.317 279.206 199.372 279.108 199.372 279.108C199.394 279.105 199.534 279.132 199.748 279.376L199.908 279.559C200.889 280.632 201.606 281.422 202.376 282.794C202.789 284.213 203.124 285.733 203.407 287.374L204.291 294.125C204.44 295.783 204.507 297.338 204.473 298.816C204.473 298.816 204.473 298.816 204.476 298.838C204.085 300.362 203.596 301.31 202.924 302.599L202.816 302.817C202.672 303.108 202.544 303.17 202.522 303.173Z" fill="#4B545A"/>
<path d="M109.466 284.529L114.249 321.073C114.249 321.073 111.66 321.712 108.617 320.563C101.926 318.04 98.5568 289.697 104.14 286.359C106.932 284.69 109.466 284.529 109.466 284.529Z" fill="#F2F2F2"/>
</g>
<path d="M1920 9.9986C1760 -62.5009 1659.5 376 1464.5 342.499C1139.91 286.734 1104.5 556.999 892 556.999C727.158 556.999 663.5 277.499 404 353.499C149.616 428.001 55 112.999 1 9.9986" stroke="#DFE0E2" stroke-width="2" stroke-dasharray="10 10"/>
<defs>
<filter id="filter0_d" x="60" y="245" width="167.764" height="115.196" filterUnits="userSpaceOnUse" color-interpolation-filters="sRGB">
<feFlood flood-opacity="0" result="BackgroundImageFix"/>
<feColorMatrix in="SourceAlpha" type="matrix" values="0 0 0 0 0 0 0 0 0 0 0 0 0 0 0 0 0 0 127 0"/>
<feOffset dy="4"/>
<feGaussianBlur stdDeviation="10"/>
<feColorMatrix type="matrix" values="0 0 0 0 0 0 0 0 0 0 0 0 0 0 0 0 0 0 0.25 0"/>
<feBlend mode="normal" in2="BackgroundImageFix" result="effect1_dropShadow"/>
<feBlend mode="normal" in="SourceGraphic" in2="effect1_dropShadow" result="shape"/>
</filter>
<radialGradient id="paint0_radial" cx="0" cy="0" r="1" gradientUnits="userSpaceOnUse" gradientTransform="translate(110.425 304.008) rotate(172.543) scale(19.2582 63.4877)">
<stop stop-color="white" stop-opacity="0.8"/>
<stop offset="1" stop-color="white" stop-opacity="0.01"/>
</radialGradient>
<radialGradient id="paint1_radial" cx="0" cy="0" r="1" gradientUnits="userSpaceOnUse" gradientTransform="translate(99.6782 283.447) rotate(172.576) scale(65.9554 8.3634)">
<stop stop-color="white" stop-opacity="0.8"/>
<stop offset="1" stop-color="white" stop-opacity="0.01"/>
</radialGradient>
<radialGradient id="paint2_radial" cx="0" cy="0" r="1" gradientUnits="userSpaceOnUse" gradientTransform="translate(105.079 324.708) rotate(172.576) scale(65.9553 8.37965)">
<stop stop-color="white" stop-opacity="0.8"/>
<stop offset="1" stop-color="white" stop-opacity="0.01"/>
</radialGradient>
<linearGradient id="paint3_linear" x1="191.006" y1="269.427" x2="192.146" y2="278.137" gradientUnits="userSpaceOnUse">
<stop offset="0.1548" stop-color="#A1A1A1"/>
<stop offset="0.9205" stop-color="white"/>
</linearGradient>
<linearGradient id="paint4_linear" x1="191.006" y1="269.427" x2="192.146" y2="278.137" gradientUnits="userSpaceOnUse">
<stop stop-color="#333333"/>
<stop offset="0.1883"/>
<stop offset="0.3849" stop-color="#333333"/>
<stop offset="0.5983"/>
<stop offset="0.8033" stop-color="#333333"/>
<stop offset="1"/>
</linearGradient>
<linearGradient id="paint5_linear" x1="196.903" y1="314.472" x2="195.762" y2="305.762" gradientUnits="userSpaceOnUse">
<stop offset="0.1548" stop-color="#A1A1A1"/>
<stop offset="0.9205" stop-color="white"/>
</linearGradient>
<linearGradient id="paint6_linear" x1="196.903" y1="314.472" x2="195.762" y2="305.762" gradientUnits="userSpaceOnUse">
<stop stop-color="#333333"/>
<stop offset="0.1883"/>
<stop offset="0.3849" stop-color="#333333"/>
<stop offset="0.5983"/>
<stop offset="0.8033" stop-color="#333333"/>
<stop offset="1"/>
</linearGradient>
<radialGradient id="paint7_radial" cx="0" cy="0" r="1" gradientUnits="userSpaceOnUse" gradientTransform="translate(148.036 298.23) rotate(173.196) scale(26.1227 64.9034)">
<stop stop-color="white" stop-opacity="0.8"/>
<stop offset="1" stop-color="white" stop-opacity="0.01"/>
</radialGradient>
</defs>
</svg>
